<svg width="40" height="40" viewBox="0 0 40 40" fill="none" xmlns="http://www.w3.org/2000/svg">
<path d="M24.7656 11.4961H32.5586V13.3867H24.7656V11.4961ZM16.957 18.9766C18.6797 18.1523 19.582 16.8984 19.582 14.9609C19.582 11.1289 16.7305 10.1992 13.4375 10.1992H4.375V29.4336H13.6914C17.1836 29.4336 20.4609 27.7539 20.4609 23.8477C20.4609 21.4336 19.3203 19.6484 16.957 18.9766V18.9766ZM8.60156 13.4805H12.5664C14.0938 13.4805 15.4648 13.9062 15.4648 15.6797C15.4648 17.3125 14.3984 17.9687 12.8867 17.9687H8.60156V13.4805ZM13.1133 26.168H8.59766V20.8711H13.2031C15.0625 20.8711 16.2383 21.6484 16.2383 23.6172C16.2383 25.5547 14.8359 26.168 13.1133 26.168V26.168ZM35.6055 22.6719C35.6055 18.5508 33.1953 15.1172 28.8359 15.1172C24.5977 15.1172 21.7148 18.3086 21.7148 22.4922C21.7148 26.8281 24.4453 29.8047 28.8359 29.8047C32.1602 29.8047 34.3125 28.3086 35.3477 25.1172H31.9766C31.6094 26.3086 30.1172 26.9336 28.957 26.9336C26.7148 26.9336 25.543 25.6211 25.543 23.3906H35.5781C35.5898 23.1602 35.6055 22.918 35.6055 22.6719V22.6719ZM25.543 20.9766C25.6641 19.1445 26.8867 18 28.7148 18C30.6367 18 31.5977 19.1289 31.7656 20.9766H25.543Z" fill="black"/>
</svg>
