<svg width="40" height="40" viewBox="0 0 40 40" fill="none" xmlns="http://www.w3.org/2000/svg">
<path fill-rule="evenodd" clip-rule="evenodd" d="M12.4417 1.77666C14.3967 1.68666 15.02 1.66666 20 1.66666C24.98 1.66666 25.6034 1.68832 27.5567 1.77666C29.51 1.86499 30.8433 2.17666 32.01 2.62832C33.2317 3.08999 34.34 3.81166 35.2567 4.74499C36.19 5.65999 36.91 6.76666 37.37 7.98999C37.8234 9.15666 38.1334 10.49 38.2234 12.44C38.3134 14.3983 38.3334 15.0217 38.3334 20C38.3334 24.98 38.3117 25.6033 38.2234 27.5583C38.135 29.5083 37.8234 30.8417 37.37 32.0083C36.91 33.2318 36.1888 34.3403 35.2567 35.2567C34.34 36.19 33.2317 36.91 32.01 37.37C30.8433 37.8233 29.51 38.1333 27.56 38.2233C25.6034 38.3133 24.98 38.3333 20 38.3333C15.02 38.3333 14.3967 38.3117 12.4417 38.2233C10.4917 38.135 9.15835 37.8233 7.99169 37.37C6.76822 36.9099 5.65972 36.1887 4.74335 35.2567C3.81065 34.3411 3.08888 33.2331 2.62835 32.01C2.17669 30.8433 1.86669 29.51 1.77669 27.56C1.68669 25.6017 1.66669 24.9783 1.66669 20C1.66669 15.02 1.68835 14.3967 1.77669 12.4433C1.86502 10.49 2.17669 9.15666 2.62835 7.98999C3.08956 6.76679 3.81188 5.65884 4.74502 4.74332C5.66009 3.81082 6.76747 3.08906 7.99002 2.62832C9.15669 2.17666 10.49 1.86666 12.44 1.77666H12.4417ZM27.4084 5.07666C25.475 4.98832 24.895 4.96999 20 4.96999C15.105 4.96999 14.525 4.98832 12.5917 5.07666C10.8034 5.15832 9.83335 5.45666 9.18669 5.70832C8.33169 6.04166 7.72002 6.43666 7.07835 7.07832C6.47009 7.67008 6.00199 8.39046 5.70835 9.18666C5.45669 9.83332 5.15835 10.8033 5.07669 12.5917C4.98835 14.525 4.97002 15.105 4.97002 20C4.97002 24.895 4.98835 25.475 5.07669 27.4083C5.15835 29.1967 5.45669 30.1667 5.70835 30.8133C6.00169 31.6083 6.47002 32.33 7.07835 32.9217C7.67002 33.53 8.39169 33.9983 9.18669 34.2917C9.83335 34.5433 10.8034 34.8417 12.5917 34.9233C14.525 35.0117 15.1034 35.03 20 35.03C24.8967 35.03 25.475 35.0117 27.4084 34.9233C29.1967 34.8417 30.1667 34.5433 30.8134 34.2917C31.6684 33.9583 32.28 33.5633 32.9217 32.9217C33.53 32.33 33.9984 31.6083 34.2917 30.8133C34.5434 30.1667 34.8417 29.1967 34.9234 27.4083C35.0117 25.475 35.03 24.895 35.03 20C35.03 15.105 35.0117 14.525 34.9234 12.5917C34.8417 10.8033 34.5434 9.83332 34.2917 9.18666C33.9584 8.33166 33.5634 7.71999 32.9217 7.07832C32.3299 6.47011 31.6095 6.00201 30.8134 5.70832C30.1667 5.45666 29.1967 5.15832 27.4084 5.07666V5.07666ZM17.6584 25.6517C18.9661 26.196 20.4223 26.2695 21.7782 25.8595C23.1342 25.4495 24.3057 24.5815 25.0927 23.4037C25.8797 22.2259 26.2334 20.8114 26.0934 19.4018C25.9534 17.9922 25.3284 16.6749 24.325 15.675C23.6854 15.0358 22.912 14.5463 22.0606 14.2419C21.2091 13.9375 20.3007 13.8256 19.4008 13.9143C18.501 14.0031 17.6319 14.2903 16.8564 14.7552C16.0808 15.2201 15.4179 15.8512 14.9155 16.6031C14.4131 17.3549 14.0837 18.2088 13.9509 19.1033C13.8181 19.9977 13.8853 20.9105 14.1476 21.7758C14.4099 22.6412 14.8608 23.4377 15.4679 24.1079C16.075 24.778 16.8231 25.3053 17.6584 25.6517ZM13.3367 13.3367C14.2117 12.4616 15.2506 11.7675 16.3938 11.2939C17.5371 10.8204 18.7625 10.5766 20 10.5766C21.2375 10.5766 22.4629 10.8204 23.6062 11.2939C24.7495 11.7675 25.7883 12.4616 26.6634 13.3367C27.5384 14.2117 28.2325 15.2505 28.7061 16.3938C29.1797 17.5371 29.4234 18.7625 29.4234 20C29.4234 21.2375 29.1797 22.4629 28.7061 23.6062C28.2325 24.7495 27.5384 25.7883 26.6634 26.6633C24.8961 28.4305 22.4993 29.4234 20 29.4234C17.5008 29.4234 15.1039 28.4305 13.3367 26.6633C11.5695 24.8961 10.5766 22.4992 10.5766 20C10.5766 17.5008 11.5695 15.1039 13.3367 13.3367V13.3367ZM31.5134 11.98C31.7302 11.7754 31.9038 11.5295 32.0239 11.2566C32.1439 10.9838 32.208 10.6896 32.2124 10.3915C32.2167 10.0935 32.1612 9.79757 32.0492 9.52134C31.9371 9.24511 31.7707 8.99417 31.56 8.78339C31.3492 8.5726 31.0982 8.40625 30.822 8.29419C30.5458 8.18212 30.2499 8.12662 29.9518 8.13096C29.6537 8.13531 29.3596 8.19941 29.0867 8.31948C28.8139 8.43955 28.5679 8.61315 28.3634 8.82999C27.9655 9.2517 27.7477 9.81186 27.7562 10.3915C27.7646 10.9712 27.9987 11.5248 28.4086 11.9347C28.8186 12.3447 29.3721 12.5787 29.9518 12.5872C30.5315 12.5956 31.0916 12.3778 31.5134 11.98V11.98Z" fill="black"/>
</svg>
