<svg width="100" height="100" viewBox="0 0 100 100" fill="none" xmlns="http://www.w3.org/2000/svg">
<path d="M75.288 79.106C73.958 80.968 72.4507 82.2537 70.766 82.963C69.17 83.761 67.308 84.16 65.18 84.16C62.0767 84.16 59.328 83.096 56.934 80.968C54.6287 78.84 53.476 76.2687 53.476 73.254C47.358 80.3473 39.9543 83.894 31.265 83.894C24.615 83.894 19.428 82.298 15.704 79.106C11.98 75.8253 9.94067 70.9043 9.586 64.343V35.881C9.586 28.8763 7.724 23.7337 4 20.453L9.32 15.133C11.448 16.463 13.3543 18.5467 15.039 21.384C16.7237 24.2213 17.566 27.2803 17.566 30.561V60.885C17.566 65.939 18.6743 69.8403 20.891 72.589C23.1963 75.3377 26.9203 76.712 32.063 76.712C36.9397 76.712 41.107 75.648 44.565 73.52C48.1117 71.392 51.0377 68.0227 53.343 63.412L53.476 16.33H61.456L61.323 71.392C61.323 73.1653 61.722 74.5397 62.52 75.515C63.4067 76.4017 64.4707 76.845 65.712 76.845C67.308 76.845 68.5937 76.0913 69.569 74.584L75.288 79.106Z" fill="#2C2C2C"/>
<path d="M96.8506 78.175C96.1413 79.6823 94.9 80.968 93.1266 82.032C91.3533 83.0073 89.3583 83.495 87.1416 83.495C83.595 83.495 80.669 82.3867 78.3636 80.17C76.0583 77.9533 74.9056 75.0717 74.9056 71.525V38.142C74.9056 27.502 70.1176 22.182 60.5416 22.182C56.0196 22.182 52.1626 23.3347 48.9706 25.64C45.7786 27.8567 42.498 31.226 39.1286 35.748V82.83H31.1486V36.147C31.1486 29.1423 29.2866 23.9997 25.5626 20.719L30.8826 15.399C32.4786 16.3743 33.986 17.8817 35.4046 19.921C36.912 21.9603 37.976 24.177 38.5966 26.571C41.6113 22.4923 44.9363 19.5663 48.5716 17.793C52.2956 15.931 56.5073 15 61.2066 15C67.6793 15 72.822 16.6847 76.6346 20.054C80.4473 23.3347 82.531 28.2113 82.8856 34.684V71.658C82.8856 72.8993 83.2846 73.9633 84.0826 74.85C84.9693 75.648 85.989 76.047 87.1416 76.047C88.915 76.047 90.2006 75.2933 90.9986 73.786L96.8506 78.175Z" fill="#2C2C2C"/>
</svg>
