<svg width="40" height="40" viewBox="0 0 40 40" fill="none" xmlns="http://www.w3.org/2000/svg">
<path d="M33.3333 33.3333H6.66665C5.78259 33.3333 4.93474 32.9821 4.30962 32.357C3.6845 31.7319 3.33331 30.884 3.33331 30V9.85499C3.3707 8.99631 3.73833 8.18525 4.35944 7.59116C4.98056 6.99706 5.80715 6.66584 6.66665 6.66666H33.3333C34.2174 6.66666 35.0652 7.01785 35.6903 7.64297C36.3155 8.26809 36.6666 9.11594 36.6666 9.99999V30C36.6666 30.884 36.3155 31.7319 35.6903 32.357C35.0652 32.9821 34.2174 33.3333 33.3333 33.3333ZM6.66665 13.1133V30H33.3333V13.1133L20 22L6.66665 13.1133ZM7.99998 9.99999L20 18L32 9.99999H7.99998Z" fill="black"/>
</svg>
